<?xml version="1.0" encoding="UTF-8" standalone="no"?>
<svg
   xmlns:dc="http://purl.org/dc/elements/1.1/"
   xmlns:cc="http://creativecommons.org/ns#"
   xmlns:rdf="http://www.w3.org/1999/02/22-rdf-syntax-ns#"
   xmlns:svg="http://www.w3.org/2000/svg"
   xmlns="http://www.w3.org/2000/svg"
   xmlns:sodipodi="http://sodipodi.sourceforge.net/DTD/sodipodi-0.dtd"
   xmlns:inkscape="http://www.inkscape.org/namespaces/inkscape"
   width="512"
   height="513"
   id="svg3037"
   version="1.1"
   sodipodi:docname="archlinux.svg"
   inkscape:version="0.92.2 2405546, 2018-03-11">
  <sodipodi:namedview
     pagecolor="#ffffff"
     bordercolor="#666666"
     borderopacity="1"
     objecttolerance="10"
     gridtolerance="10"
     guidetolerance="10"
     inkscape:pageopacity="0"
     inkscape:pageshadow="2"
     inkscape:window-width="958"
     inkscape:window-height="1027"
     id="namedview13"
     showgrid="false"
     inkscape:zoom="0.65186406"
     inkscape:cx="275.57334"
     inkscape:cy="238.34685"
     inkscape:window-x="960"
     inkscape:window-y="8"
     inkscape:window-maximized="0"
     inkscape:current-layer="svg3037"
     inkscape:pagecheckerboard="true" />
  <defs
     id="defs5498" />
  <metadata
     id="metadata5594">
    <rdf:RDF>
      <cc:Work
         rdf:about="">
        <dc:format>image/svg+xml</dc:format>
        <dc:type
           rdf:resource="http://purl.org/dc/dcmitype/StillImage" />
        <dc:title />
      </cc:Work>
    </rdf:RDF>
  </metadata>
  <path
     style="fill:#ffffff;fill-opacity:1;fill-rule:evenodd;stroke:none;stroke-width:0.84979337"
     id="path2518"
     d="M 257.10863,3.8371704 C 236.08345,55.385301 223.40208,89.103831 199.99331,139.11963 c 14.35251,15.21366 31.96955,32.93072 60.57955,52.94048 -30.75856,-12.65697 -51.73966,-25.36424 -67.41917,-38.55062 -29.95877,62.51357 -76.89554,151.56139 -172.145383,322.70596 74.863179,-43.21981 132.895763,-69.86529 186.979373,-80.0325 -2.32238,-9.98848 -3.64273,-20.79297 -3.55305,-32.06629 l 0.0888,-2.39831 c 1.18791,-47.96285 26.13815,-84.84629 55.6941,-82.34199 29.55596,2.5043 52.52949,43.43939 51.3416,91.40227 -0.22342,9.02509 -1.24141,17.70714 -3.02009,25.75963 53.49641,10.46485 110.90846,37.04211 184.75872,79.67719 -14.56183,-26.80934 -27.55952,-50.976 -39.97184,-73.99231 -19.55142,-15.15365 -39.94452,-34.87619 -81.54255,-56.22705 28.59209,7.42943 49.06367,16.00102 65.02085,25.58198 C 310.60471,136.6166 300.38525,105.39508 257.10863,3.8371704 Z"
     inkscape:connector-curvature="0" />
</svg>
