<?xml version="1.0" encoding="UTF-8" standalone="no"?>
<!-- Generator: Adobe Illustrator 16.0.0, SVG Export Plug-In . SVG Version: 6.00 Build 0)  -->

<svg
   xmlns:dc="http://purl.org/dc/elements/1.1/"
   xmlns:cc="http://creativecommons.org/ns#"
   xmlns:rdf="http://www.w3.org/1999/02/22-rdf-syntax-ns#"
   xmlns:svg="http://www.w3.org/2000/svg"
   xmlns="http://www.w3.org/2000/svg"
   xmlns:sodipodi="http://sodipodi.sourceforge.net/DTD/sodipodi-0.dtd"
   xmlns:inkscape="http://www.inkscape.org/namespaces/inkscape"
   version="1.1"
   id="Layer_1"
   x="0px"
   y="0px"
   width="466px"
   height="423.891px"
   viewBox="0 0 466 423.891"
   enable-background="new 0 0 466 423.891"
   xml:space="preserve"
   sodipodi:docname="docker.svg"
   inkscape:version="0.92.2 2405546, 2018-03-11"><metadata
   id="metadata41"><rdf:RDF><cc:Work
       rdf:about=""><dc:format>image/svg+xml</dc:format><dc:type
         rdf:resource="http://purl.org/dc/dcmitype/StillImage" /><dc:title></dc:title></cc:Work></rdf:RDF></metadata><defs
   id="defs39">
	
	
	
	
	
	

		
		
		
		
		
		
		
		
		
	</defs><sodipodi:namedview
   pagecolor="#ffffff"
   bordercolor="#666666"
   borderopacity="1"
   objecttolerance="10"
   gridtolerance="10"
   guidetolerance="10"
   inkscape:pageopacity="0"
   inkscape:pageshadow="2"
   inkscape:window-width="958"
   inkscape:window-height="504"
   id="namedview37"
   showgrid="false"
   inkscape:pagecheckerboard="true"
   inkscape:zoom="1.574718"
   inkscape:cx="400.95723"
   inkscape:cy="236.96084"
   inkscape:window-x="960"
   inkscape:window-y="0"
   inkscape:window-maximized="0"
   inkscape:current-layer="Layer_1" />
<rect
   x="-43.5"
   y="37.005"
   display="none"
   fill-rule="evenodd"
   clip-rule="evenodd"
   fill="#E7E7E7"
   width="792"
   height="612"
   id="rect2" />
<g
   style="display:none"
   id="g7"
   display="none">
		<path
   style="display:inline;fill:#394d54"
   inkscape:connector-curvature="0"
   id="path5"
   d="m 61.093,319.89 c 6.023,0 11.763,-0.157 17.219,-0.464 0.476,-0.026 0.932,-0.063 1.402,-0.092 0.005,-0.002 0.008,-0.002 0.012,-0.002 13.872,-0.855 25.876,-2.708 35.902,-5.57 0.002,-0.002 0.004,-0.002 0.006,-0.002 1.823,-0.521 3.588,-1.07 5.282,-1.656 1.894,-0.657 2.896,-2.725 2.241,-4.618 -0.656,-1.895 -2.722,-2.899 -4.618,-2.24 -12.734,4.412 -29.535,6.842 -50.125,7.298 -0.002,0 -0.004,0 -0.005,0 -10.477,0.232 -21.93,-0.044 -34.352,-0.843 0,0 0,0 -0.001,0 -0.635,-0.038 -1.259,-0.075 -1.9,-0.118 -1.995,-0.128 -3.731,1.374 -3.869,3.375 -0.136,1.999 1.376,3.73 3.375,3.866 2.537,0.173 5.03,0.321 7.49,0.453 0.392,0.021 0.77,0.034 1.158,0.054 v 0 c 7.256,0.366 14.194,0.559 20.783,0.559 z"
   display="inline" />
	</g><path
   inkscape:connector-curvature="0"
   style="clip-rule:evenodd;fill:#ffffff;fill-opacity:1;fill-rule:evenodd;stroke-width:0.90198088"
   d="m 212.86396,72.395258 v 42.525232 h -85.04868 v 42.52346 H 85.291808 v 43.46949 H 48.928942 l -0.598972,6.42838 c -1.997887,21.46444 0.947852,42.94563 9.814327,62.55379 l 3.822848,7.77606 0.42985,0.72757 c 26.232311,44.54612 72.297645,63.31659 122.507335,63.31659 97.18663,0 177.33911,-43.41407 214.15527,-135.11215 24.60423,1.28622 49.77166,-5.98875 61.80858,-29.48175 l 3.07415,-6.00029 -5.84175,-3.36833 c -14.23325,-8.21524 -33.19304,-9.33901 -49.33939,-4.58918 -1.98889,-17.16199 -13.2674,-32.21878 -26.67715,-42.99383 l -5.32557,-4.28089 -4.47115,5.17054 c -8.97921,10.3845 -11.6558,27.65219 -10.43091,40.92033 0.90289,9.75492 3.96753,19.65197 9.97113,27.48928 -4.55864,2.74113 -9.74392,4.92243 -14.36477,6.48827 -9.40314,3.1858 -19.61614,4.95561 -29.54516,4.95561 H 306.41807 V 157.44219 H 263.89283 V 72.395258 Z m 7.08725,7.087244 h 36.85614 v 36.854368 h -36.85614 z m 3.07061,3.06885 v 30.714918 h 2.90854 V 82.551352 Z m 5.47002,0 v 30.714918 h 3.0248 V 82.551352 Z m 5.58101,0 v 30.714918 h 3.02656 V 82.551352 Z m 5.58629,0 v 30.714918 h 3.02481 V 82.551352 Z m 5.58453,0 v 30.714918 h 3.02482 V 82.551352 Z m 5.58276,0 v 30.714918 h 2.9103 V 82.551352 Z M 134.90076,122.00598 h 36.8579 v 36.85435 h -36.8579 z m 42.52698,0 h 36.85615 v 36.85435 h -36.85615 z m 42.52347,0 h 36.85614 v 36.85435 h -36.85614 z m -81.97632,3.0706 v 30.71316 h 2.90678 v -30.71316 z m 5.46826,0 v 30.71316 h 3.02304 v -30.71316 z m 5.581,0 v 30.71316 h 3.02482 v -30.71316 z m 5.58454,0 v 30.71316 h 3.0248 v -30.71316 z m 5.58452,0 v 30.71316 h 3.02658 v -30.71316 z m 5.58278,0 v 30.71316 h 2.91205 v -30.71316 z m 14.72236,0 v 30.71316 h 2.90678 v -30.71316 z m 5.46651,0 v 30.71316 h 3.02479 v -30.71316 z m 5.58452,0 v 30.71316 h 3.02482 v -30.71316 z m 5.58453,0 v 30.71316 h 3.02656 v -30.71316 z m 5.58453,0 v 30.71316 h 3.02481 v -30.71316 z m 5.58453,0 v 30.71316 h 2.90854 v -30.71316 z m 14.71885,0 v 30.71316 h 2.90854 v -30.71316 z m 5.47002,0 v 30.71316 h 3.0248 v -30.71316 z m 5.58101,0 v 30.71316 h 3.02656 v -30.71316 z m 5.58629,0 v 30.71316 h 3.02481 v -30.71316 z m 5.58453,0 v 30.71316 h 3.02482 v -30.71316 z m 5.58276,0 v 30.71316 h 2.9103 V 125.07658 Z M 92.379052,164.52944 h 36.854368 v 36.85438 H 92.379052 Z m 42.521708,0 h 36.8579 v 36.85438 h -36.8579 z m 42.52698,0 h 36.85615 v 36.85438 h -36.85615 z m 42.52347,0 h 36.85614 v 36.85438 h -36.85614 z m 42.52347,0 h 36.85614 v 36.85438 h -36.85614 z m -167.025016,3.07237 v 30.71492 h 2.906773 v -30.71492 z m 5.466496,0 v 30.71492 h 3.02657 v -30.71492 z m 5.58453,0 v 30.71492 h 3.02481 v -30.71492 z m 5.58453,0 v 30.71492 h 3.02481 v -30.71492 z m 5.58454,0 v 30.71492 h 3.02479 v -30.71492 z m 5.58276,0 v 30.71492 h 2.91029 v -30.71492 z m 14.72237,0 v 30.71492 h 2.90678 v -30.71492 z m 5.46826,0 v 30.71492 h 3.02304 v -30.71492 z m 5.581,0 v 30.71492 h 3.02482 v -30.71492 z m 5.58454,0 v 30.71492 h 3.0248 v -30.71492 z m 5.58452,0 v 30.71492 h 3.02658 v -30.71492 z m 5.58278,0 v 30.71492 h 2.91205 v -30.71492 z m 14.72236,0 v 30.71492 h 2.90678 v -30.71492 z m 5.46651,0 v 30.71492 h 3.02479 v -30.71492 z m 5.58452,0 v 30.71492 h 3.02482 v -30.71492 z m 5.58453,0 v 30.71492 h 3.02656 v -30.71492 z m 5.58453,0 v 30.71492 h 3.02481 v -30.71492 z m 5.58453,0 v 30.71492 h 2.90854 v -30.71492 z m 14.71885,0 v 30.71492 h 2.90854 v -30.71492 z m 5.47002,0 v 30.71492 h 3.0248 v -30.71492 z m 5.58101,0 v 30.71492 h 3.02656 v -30.71492 z m 5.58629,0 v 30.71492 h 3.02481 v -30.71492 z m 5.58453,0 v 30.71492 h 3.02482 v -30.71492 z m 5.58276,0 v 30.71492 h 2.9103 v -30.71492 z m 14.71885,0 v 30.71492 h 2.91031 v -30.71492 z m 5.4665,0 v 30.71492 h 3.02657 v -30.71492 z m 5.5863,0 v 30.71492 h 3.0248 v -30.71492 z m 5.58276,0 v 30.71492 h 3.02481 v -30.71492 z m 5.58629,0 v 30.71492 h 3.02305 v -30.71492 z m 5.58454,0 v 30.71492 h 2.90677 v -30.71492 z"
   id="outline_7_" />
</svg>