<?xml version="1.0" encoding="UTF-8" standalone="no"?>
<svg
   xmlns:dc="http://purl.org/dc/elements/1.1/"
   xmlns:cc="http://creativecommons.org/ns#"
   xmlns:rdf="http://www.w3.org/1999/02/22-rdf-syntax-ns#"
   xmlns:svg="http://www.w3.org/2000/svg"
   xmlns="http://www.w3.org/2000/svg"
   xmlns:sodipodi="http://sodipodi.sourceforge.net/DTD/sodipodi-0.dtd"
   xmlns:inkscape="http://www.inkscape.org/namespaces/inkscape"
   width="512"
   height="512"
   id="svg2"
   version="1.0"
   sodipodi:docname="gentoo.svg"
   inkscape:version="0.92.2 2405546, 2018-03-11">
  <sodipodi:namedview
     pagecolor="#ffffff"
     bordercolor="#666666"
     borderopacity="1"
     objecttolerance="10"
     gridtolerance="10"
     guidetolerance="10"
     inkscape:pageopacity="0"
     inkscape:pageshadow="2"
     inkscape:window-width="958"
     inkscape:window-height="1027"
     id="namedview8"
     showgrid="false"
     inkscape:zoom="1.84375"
     inkscape:cx="308.03071"
     inkscape:cy="425.57561"
     inkscape:window-x="952"
     inkscape:window-y="8"
     inkscape:window-maximized="0"
     inkscape:current-layer="svg2"
     inkscape:pagecheckerboard="true" />
  <title
     id="title3032">Gentoo Logo Dark v1.0</title>
  <defs
     id="defs4" />
  <metadata
     id="metadata7">
    <rdf:RDF>
      <cc:Work
         rdf:about="">
        <dc:format>image/svg+xml</dc:format>
        <dc:type
           rdf:resource="http://purl.org/dc/dcmitype/StillImage" />
        <dc:title>Gentoo Logo Dark v1.0</dc:title>
        <dc:date>2011-06-03</dc:date>
        <dc:creator>
          <cc:Agent>
            <dc:title>Sebastian Pipping &lt;sping@gentoo.org&gt;</dc:title>
          </cc:Agent>
        </dc:creator>
        <dc:rights>
          <cc:Agent>
            <dc:title>Lennart Andre Rolland, Gentoo Foundation Inc.</dc:title>
          </cc:Agent>
        </dc:rights>
        <dc:publisher>
          <cc:Agent>
            <dc:title>Gentoo Foundation Inc.</dc:title>
          </cc:Agent>
        </dc:publisher>
        <dc:contributor>
          <cc:Agent>
            <dc:title>Lennart Andre Rolland for original vector version, idea for dark version and specific RGB value by unknown person</dc:title>
          </cc:Agent>
        </dc:contributor>
        <cc:license
           rdf:resource="http://creativecommons.org/licenses/by-sa/4.0/" />
      </cc:Work>
      <cc:License
         rdf:about="http://creativecommons.org/licenses/by-sa/4.0/">
        <cc:permits
           rdf:resource="http://creativecommons.org/ns#Reproduction" />
        <cc:permits
           rdf:resource="http://creativecommons.org/ns#Distribution" />
        <cc:requires
           rdf:resource="http://creativecommons.org/ns#Notice" />
        <cc:requires
           rdf:resource="http://creativecommons.org/ns#Attribution" />
        <cc:permits
           rdf:resource="http://creativecommons.org/ns#DerivativeWorks" />
        <cc:requires
           rdf:resource="http://creativecommons.org/ns#ShareAlike" />
      </cc:License>
    </rdf:RDF>
  </metadata>
  <g
     id="layer2"
     style="display:inline;fill:#fffff6;fill-opacity:1"
     transform="matrix(0.98117912,0,0,0.98117912,-6.991511,-131.46466)">
    <path
       style="fill:#fffff6;fill-opacity:1;fill-rule:evenodd;stroke:none"
       d="M 212.03125,0.0625 C 202.87493,0.12755657 193.86211,0.94485937 185.1875,2.53125 92.4908,19.4834 27.273526,99.66472 21.75,152.5 c -2.710087,25.92335 11.260042,45.34168 18.96875,53.90625 20.833523,23.14657 62.36583,40.81996 89.0625,55.46875 -38.59504,32.90755 -56.316915,48.975 -73.75,67.28125 -26.08611,27.39269 -44.44393,57.52874 -44.5,79.125 -0.01972,6.9563 -1.142699,29.14564 7.90625,46.65625 3.402938,6.58504 13.087319,28.54469 42.25,45 18.639254,10.51738 45.1909,14.39759 71.1875,10.6875 80.45605,-11.48227 188.20069,-79.7319 265.09375,-143.28125 49.00548,-40.50127 84.84066,-79.73777 95.1875,-99.0625 8.34835,-15.59217 9.28004,-43.57382 4.4375,-61.125 C 483.83587,157.2925 371.99621,55.16909 280.5625,14.0625 259.61465,4.6447906 235.43073,-0.10375569 212.03125,0.0625 Z M 211.875,1.5 C 236.85412,1.1518039 261.59072,6.9653969 283.21875,17.59375 357.06447,53.88267 481.79298,155.8628 491,207.15625 502.37863,270.54806 279.1196,442.18363 143.3125,468.96875 90.62569,479.31137 45.715115,482.11258 25.21875,426.46875 7.450976,378.23255 41.903325,342.95245 92.625,296.59375 113.68712,277.34335 130.48278,262.95874 155.75,241.625 157.20342,240.17159 34.034672,197.70018 30.09375,148.96875 26.042925,98.87834 105.33386,6.44883 206.875,1.65625 c 1.66674,-0.078422 3.33473,-0.1330369 5,-0.15625 z M 209.5,12.59375 C 205.97685,12.64763 202.39857,12.862207 198.71875,13.25 148.85401,18.50492 139.29857,24.9161 94.125,59.09375 78.98489,70.54854 51.108579,98.43471 43.96875,131.5 c -2.719239,12.59307 0.492976,23.46893 9.5625,31.09375 29.041081,24.41511 77.65482,44.2272 117.53125,63.375 11.67987,5.6084 3.92869,15.75657 -14.90625,32.0625 -47.52739,41.14575 -111.764056,91.2411 -116.25,129.40625 -2.113885,17.98435 4.046056,42.43174 25.875,54.9375 25.49964,14.6087 78.43551,5.06825 113.78125,-8.09375 51.65108,-19.23376 119.47841,-61.68031 173.34375,-103.40625 56.01315,-43.38969 108.11134,-98.51153 110.6875,-107.5 3.16348,-11.0377 2.82384,-21.21618 -3.28125,-32.9375 -9.58723,-18.40666 -22.39359,-32.09718 -36.15625,-47.40625 C 387.22878,104.10047 348.15283,69.90154 301.40625,43.6875 270.81352,26.532061 243.55716,12.072894 209.5,12.59375 Z M 233.0625,89.875 c 11.49821,0.137106 24.69951,3.802775 38.875,10.65625 36.02494,17.41711 73.02837,63.1688 -0.3125,89.5 -19.9431,7.16008 -83.18618,-17.57508 -81.25,-51.34375 1.85286,-32.73551 17.46205,-48.10269 40.40625,-48.78125 0.75115,-0.02222 1.5147,-0.04039 2.28125,-0.03125 z m 3.90625,29.1875 c -6.07639,0.21072 -10.92124,1.95483 -13.25,5.5625 -11.88011,18.40442 -6.48603,31.4278 4.53125,39.75 4.09571,-9.74903 45.94177,0.89833 45.8125,10.0625 0.44026,-0.20686 0.82554,-0.43861 1.15625,-0.6875 37.06938,-27.89879 -11.91896,-55.60062 -38.25,-54.6875 z"
       id="path2973"
       transform="translate(25.69105,136.02588)"
       inkscape:connector-curvature="0" />
  </g>
</svg>
