<?xml version="1.0" encoding="UTF-8" standalone="no"?>
<svg
   xmlns:dc="http://purl.org/dc/elements/1.1/"
   xmlns:cc="http://creativecommons.org/ns#"
   xmlns:rdf="http://www.w3.org/1999/02/22-rdf-syntax-ns#"
   xmlns:svg="http://www.w3.org/2000/svg"
   xmlns="http://www.w3.org/2000/svg"
   xmlns:sodipodi="http://sodipodi.sourceforge.net/DTD/sodipodi-0.dtd"
   xmlns:inkscape="http://www.inkscape.org/namespaces/inkscape"
   width="512"
   height="512"
   id="svg3037"
   version="1.1"
   sodipodi:docname="linuxmint.svg"
   inkscape:version="0.92.2 2405546, 2018-03-11">
  <sodipodi:namedview
     pagecolor="#ffffff"
     bordercolor="#666666"
     borderopacity="1"
     objecttolerance="10"
     gridtolerance="10"
     guidetolerance="10"
     inkscape:pageopacity="0"
     inkscape:pageshadow="2"
     inkscape:window-width="958"
     inkscape:window-height="1027"
     id="namedview11"
     showgrid="false"
     inkscape:zoom="0.921875"
     inkscape:cx="225.07606"
     inkscape:cy="292.00049"
     inkscape:window-x="1062"
     inkscape:window-y="0"
     inkscape:window-maximized="0"
     inkscape:current-layer="svg3037"
     inkscape:pagecheckerboard="true" />
  <defs
     id="defs5498" />
  <metadata
     id="metadata5594">
    <rdf:RDF>
      <cc:Work
         rdf:about="">
        <dc:format>image/svg+xml</dc:format>
        <dc:type
           rdf:resource="http://purl.org/dc/dcmitype/StillImage" />
        <dc:title></dc:title>
      </cc:Work>
    </rdf:RDF>
  </metadata>
  <g
     id="layer1"
     transform="translate(-106.75915,-484.95513)"
     style="fill:#fffff6;fill-opacity:1">
    <g
       id="g3159"
       transform="matrix(1.8062188,0,0,1.8062258,100.75924,484.95513)"
       style="fill:#fffff6;fill-opacity:1">
      <g
         style="display:inline;fill:#fffff6;fill-opacity:1"
         transform="matrix(0.41109898,0,0,0.41109739,-33.081295,-9.0723127)"
         id="layer1-4">
        <g
           transform="translate(36.663888,-55.180569)"
           id="g3016"
           style="fill:#fffff6;fill-opacity:1">
          <path
             id="path6141"
             style="color:#000000;display:inline;overflow:visible;visibility:visible;fill:#fffff6;fill-opacity:1;fill-rule:evenodd;stroke:none;stroke-width:1;marker:none;enable-background:accumulate"
             d="m 368.58661,721.50735 c -122.9425,0 -229.6326,-93.20203 -229.6326,-216.03435 L 138.84373,356.32808 V 318.2962 H 60.899264 V 128.79634 l 328.693796,1.54796 102.82057,0.22126 c 123.05297,0 229.63256,93.09107 229.63256,216.03369 V 721.50737 H 368.5868 v 0 0 z M 671.96217,620.93836 c 0,-81.67298 0,-274.33915 0,-274.33915 0,-91.65342 -80.37661,-165.94989 -179.54873,-165.94989 H 389.48238 v -0.22126 l -278.38915,-1.21642 v 89.00068 c 0,0 11.18147,0 31.18512,0 21.1721,0 46.64858,19.89631 46.64858,49.09346 l 0.22126,188.05741 c 0,91.65351 80.37705,165.94984 179.43844,165.94984 h 244.58232 c 31.35558,0 58.79327,-19.85726 58.79327,-50.37477 z"
             inkscape:connector-curvature="0" />
          <path
             id="path4130"
             d="m 429.88247,279.74272 c -23.23011,0 -43.87075,8.62459 -60.45513,25.37765 -16.57613,16.74411 -25.27959,37.64786 -25.27954,61.23842 v 119.24517 h 54.08639 V 366.35879 c 0,-9.04192 2.95029,-16.11202 9.40622,-22.63355 6.47717,-6.54236 13.3361,-9.5041 22.24206,-9.5041 9.09263,0 15.84866,2.94685 22.33997,9.5041 6.45597,6.52153 9.40634,13.59163 9.40634,22.63355 V 485.60396 H 515.7151 V 366.35879 c 0,-9.04192 2.95036,-16.11202 9.4064,-22.63355 6.49125,-6.55725 13.24728,-9.5041 22.34006,-9.5041 8.90604,0 15.76481,2.96174 22.24186,9.5041 6.45597,6.52153 9.40634,13.59163 9.40634,22.63355 l 0.29394,139.33197 c 0,29.72212 -28.30487,54.77182 -64.66844,54.77182 L 340.3265,559.77685 c -28.06174,0 -52.02874,-27.31375 -52.02874,-62.41495 V 234.98008 h -51.14679 v 272.47385 c 0,28.9094 10.57865,54.26083 31.15842,74.761 17.59005,17.36238 38.74446,28.61707 62.51278,31.15896 l 194.20127,-4.7e-4 c 29.84189,0 56.05939,-11.09612 77.21017,-32.62896 h 0.0982 c 17.98854,-18.4817 28.5047,-40.62686 31.06039,-65.54957 l -0.19566,-148.8361 c 0,-23.59056 -8.70318,-44.49431 -25.27954,-61.23842 -16.5842,-16.75306 -37.22503,-25.37765 -60.45502,-25.37765 -22.80223,0 -42.75419,8.47911 -58.88759,24.00558 -16.08619,-15.50088 -35.89872,-24.00558 -58.6915,-24.00558 z"
             style="color:#000000;display:inline;overflow:visible;visibility:visible;fill:#fffff6;fill-opacity:1;fill-rule:evenodd;stroke:none;stroke-width:1;marker:none;enable-background:accumulate"
             inkscape:connector-curvature="0" />
        </g>
      </g>
    </g>
  </g>
</svg>
