<?xml version="1.0" encoding="UTF-8" standalone="no"?>
<svg
   xmlns:dc="http://purl.org/dc/elements/1.1/"
   xmlns:cc="http://creativecommons.org/ns#"
   xmlns:rdf="http://www.w3.org/1999/02/22-rdf-syntax-ns#"
   xmlns:svg="http://www.w3.org/2000/svg"
   xmlns="http://www.w3.org/2000/svg"
   xmlns:sodipodi="http://sodipodi.sourceforge.net/DTD/sodipodi-0.dtd"
   xmlns:inkscape="http://www.inkscape.org/namespaces/inkscape"
   width="100%"
   height="100%"
   viewBox="0 0 512 512"
   version="1.1"
   xml:space="preserve"
   style="fill-rule:evenodd;clip-rule:evenodd;stroke-linejoin:round;stroke-miterlimit:1.41421;"
   id="svg34"
   sodipodi:docname="snappy.svg"
   inkscape:version="0.92.2 2405546, 2018-03-11"><metadata
     id="metadata40"><rdf:RDF><cc:Work
         rdf:about=""><dc:format>image/svg+xml</dc:format><dc:type
           rdf:resource="http://purl.org/dc/dcmitype/StillImage" /><dc:title /></cc:Work></rdf:RDF></metadata><defs
     id="defs38" /><sodipodi:namedview
     pagecolor="#ffffff"
     bordercolor="#666666"
     borderopacity="1"
     objecttolerance="10"
     gridtolerance="10"
     guidetolerance="10"
     inkscape:pageopacity="0"
     inkscape:pageshadow="2"
     inkscape:window-width="958"
     inkscape:window-height="1027"
     id="namedview36"
     showgrid="false"
     inkscape:pagecheckerboard="true"
     inkscape:zoom="0.65186406"
     inkscape:cx="127.0611"
     inkscape:cy="363.16702"
     inkscape:window-x="952"
     inkscape:window-y="8"
     inkscape:window-maximized="0"
     inkscape:current-layer="svg34" /><g
     id="g862"
     transform="matrix(1.5154664,0,0,1.5154664,-145.78441,-138.24469)"><path
       id="path4"
       style="fill:#ffffff;fill-rule:nonzero"
       d="m 288.481,176.782 -26.896,13.374 26.896,13.522 z"
       inkscape:connector-curvature="0" /><path
       id="path6"
       style="fill:#ffffff;fill-rule:nonzero"
       d="m 288.481,171.05 v -16.02 c 0,-0.294 0,-0.441 0.147,-0.588 0,0 0,-0.147 0.147,-0.147 0,-0.147 0.147,-0.294 0.147,-0.441 0,-0.147 0.147,-0.147 0.147,-0.147 l 0.294,-0.294 0.147,-0.147 0.147,-0.147 h 0.294 l 13.08,-6.466 -46.884,-23.516 -64.374,32.187 64.374,32.187 z"
       inkscape:connector-curvature="0" /><path
       id="path8"
       style="fill:#ffffff;fill-rule:nonzero"
       d="m 118.434,328.604 65.109,32.481 V 296.711 L 118.434,264.23 Z"
       inkscape:connector-curvature="0" /><path
       id="path10"
       style="fill:#ffffff;fill-rule:nonzero"
       d="m 180.309,225.136 -61.875,-30.864 v 64.374 l 0.294,0.146 2.792,1.323 62.023,31.011 v -61.875 -2.499 l -0.294,-0.146 z"
       inkscape:connector-curvature="0" /><path
       id="path12"
       style="fill:#ffffff;fill-rule:nonzero"
       d="m 250.415,190.156 -30.57,-15.285 -11.611,-5.732 -22.193,-11.17 -2.498,1.176 -62.023,31.011 61.288,30.718 0.735,0.294 2.498,1.175 2.499,-1.175 z"
       inkscape:connector-curvature="0" /><path
       id="path14"
       style="fill:#ffffff;fill-rule:nonzero"
       d="m 328.457,361.085 64.962,-32.481 V 264.23 l -64.962,32.481 z"
       inkscape:connector-curvature="0" /><path
       id="path16"
       style="fill:#ffffff;fill-rule:nonzero"
       d="m 360.938,262.614 c -0.147,0 -0.441,0 -0.588,-0.147 h -0.147 c -0.147,0 -0.147,0 -0.294,-0.147 l -31.305,-15.726 v 44.385 l 61.876,-31.011 -11.905,-6.026 -16.314,8.231 c -0.147,0 -0.147,0 -0.294,0.147 h -0.147 c -0.441,0.294 -0.735,0.294 -0.882,0.294 z"
       inkscape:connector-curvature="0" /><path
       id="path18"
       style="fill:#ffffff;fill-rule:nonzero"
       d="m 258.792,331.544 -0.293,0.147 v 64.374 l 61.875,-30.865 2.792,-1.469 0.294,-0.147 v -2.499 -61.875 l -61.875,30.864 z"
       inkscape:connector-curvature="0" /><path
       id="path20"
       style="fill:#ffffff;fill-rule:nonzero"
       d="M 250.415,330.074 188.54,299.21 v 64.374 l 0.294,0.147 2.792,1.469 61.875,30.865 v -61.876 -2.498 l -0.293,-0.147 z"
       inkscape:connector-curvature="0" /><path
       id="path22"
       style="fill:#ffffff;fill-rule:nonzero"
       d="m 363.437,191.773 v 64.374 l 9.406,-4.703 2.793,-1.47 2.792,-1.323 49.971,-24.985 v -64.521 z"
       inkscape:connector-curvature="0" /><path
       id="path24"
       style="fill:#ffffff;fill-rule:nonzero"
       d="m 328.457,226.459 v 14.697 l 29.983,14.991 v -64.374 l -29.983,-14.991 -2.498,-1.323 -2.499,-1.323 -14.991,-7.495 -2.792,-1.47 -2.793,-1.47 -9.406,-4.703 v 46.884 l 29.982,14.992 2.499,1.322 1.176,0.588 h 0.294 c 0.147,0 0.147,0.147 0.147,0.147 0.147,0 0.147,0.147 0.147,0.147 l 0.44,0.441 c 0.147,0.147 0.147,0.294 0.147,0.441 0,0 0,0.147 0.147,0.147 0,0.147 0.147,0.441 0.147,0.735 z"
       inkscape:connector-curvature="0" /><path
       id="path26"
       style="fill:#ffffff;fill-rule:nonzero"
       d="m 308.469,161.056 2.793,1.47 2.792,1.322 9.406,4.703 2.499,1.323 2.498,1.176 32.481,16.314 64.374,-32.187 -64.374,-32.187 -46.884,23.369 -2.792,1.469 -2.793,1.323 -11.905,6.026 z"
       inkscape:connector-curvature="0" /><path
       id="path28"
       style="fill:#ffffff;fill-rule:nonzero"
       d="m 311.262,235.277 -2.793,1.47 -46.884,23.368 -2.793,1.47 -0.293,0.147 v 64.374 l 61.875,-31.011 2.792,-1.323 0.294,-0.147 v -2.499 -46.884 -2.792 -2.793 -9.406 l -9.406,4.703 z"
       inkscape:connector-curvature="0" /><path
       id="path30"
       style="fill:#ffffff;fill-rule:nonzero"
       d="m 253.208,261.585 -2.793,-1.47 -30.57,-15.285 -31.305,-15.579 v 64.374 l 0.294,0.147 2.792,1.323 29.395,14.697 32.48,16.314 v -61.876 -2.498 z"
       inkscape:connector-curvature="0" /><path
       id="path32"
       style="fill:#ffffff;fill-rule:nonzero"
       d="m 302.884,233.954 2.793,-1.47 2.792,-1.322 11.905,-6.026 -26.896,-13.375 -2.499,-1.322 -2.498,-1.176 -29.982,-14.991 -2.499,-1.323 -2.499,1.323 -61.875,30.864 29.395,14.697 32.48,16.314 2.499,1.176 2.499,-1.176 z"
       inkscape:connector-curvature="0" /></g></svg>