<?xml version="1.0" encoding="UTF-8" standalone="no"?>
<svg
   xmlns:dc="http://purl.org/dc/elements/1.1/"
   xmlns:cc="http://creativecommons.org/ns#"
   xmlns:rdf="http://www.w3.org/1999/02/22-rdf-syntax-ns#"
   xmlns:svg="http://www.w3.org/2000/svg"
   xmlns="http://www.w3.org/2000/svg"
   id="svg981"
   version="1.1"
   viewBox="0 0 163 159"
   height="159mm"
   width="163mm">
  <defs
     id="defs975" />
  <metadata
     id="metadata978">
    <rdf:RDF>
      <cc:Work
         rdf:about="">
        <dc:format>image/svg+xml</dc:format>
        <dc:type
           rdf:resource="http://purl.org/dc/dcmitype/StillImage" />
        <dc:title></dc:title>
      </cc:Work>
    </rdf:RDF>
  </metadata>
  <g
     transform="translate(0,-138)"
     id="layer1">
    <path
       d="m -23.021428,321.77822 c -28.611263,-13.31231 -40.246011,-47.92736 -26.660332,-75.57241 14.488679,-29.48256 52.0144936,-41.45755 81.960159,-27.38369 31.82939,14.95919 44.74395,53.56807 29.47725,84.35546 -16.17819,32.62556 -57.8024624,45.85059 -90.972162,30.13455 -35.054218,-16.60892 -49.251398,-59.22073 -32.299456,-93.15652 17.870581,-35.77475 63.6021216,-50.25234 100.001758,-32.8903 38.28511,18.26136 53.76738,64.88424 35.12647,101.97391 -19.56566,38.92964 -69.4123534,54.66208 -109.047392,35.65062 -41.521532,-19.91637 -58.291141,-70.55767 -37.957942,-110.80631 21.263265,-42.0897 75.2323366,-59.07914 118.107804,-38.4151 44.76304,21.57376 62.822071,76.24015 40.79353,119.65255 C 62.544999,360.57549 4.4469826,378.82384 -41.673584,356.50447 -89.682882,333.27104 -109.03323,274.57332 -85.306606,227.9928 -60.64109,179.56901 1.5919766,160.05993 50.962029,184.0373 102.22198,208.93249 122.86543,271.66725 97.438139,321.42008 71.068249,373.01727 4.6944866,393.78874 -47.929188,368.151 -102.4439,341.592 -124.38211,274.8149 -97.251796,221.88586 -69.17552,167.11134 1.3442526,145.07591 57.225409,172.37624 114.99878,200.60098 138.2333,271.42544 109.39774,327.53434 79.613159,385.48989 4.9424286,408.79074 -54.199906,379.82571 -115.23558,349.93344 -139.7679,275.05691 -109.225,215.76463 c 31.494696,-61.14 110.3210926,-85.7077 172.728069,-55.07599 64.301451,31.56154 90.132941,110.49459 57.880771,172.97355 -16.49565,31.95534 -46.389251,56.28235 -81.500091,66.55605"
       id="path999"
       style="fill:#ff1ca3;fill-opacity:1;fill-rule:evenodd;stroke:#752878;stroke-width:3.55400252;stroke-miterlimit:4;stroke-dasharray:none;stroke-opacity:1" />
  </g>
</svg>
